<?xml version="1.0"?><svg width="3000" height="2990" xmlns="http://www.w3.org/2000/svg">
 <metadata id="metadata6122">image/svg+xml</metadata>
 <g>
  <title>Layer 1</title>
  <g id="layer1">
   <g id="g6100">
    <path fill="#000000" fill-rule="evenodd" stroke-width="1px" d="m874.253601,1018.39679c-52.88147,50.480286 -149.333435,149.103088 -278.087891,141.078796c-29.144592,-1.815918 -43.669006,-21.368042 -50.505127,-43.218506c-3.284973,15.330444 -22.01416,45.339844 -49.41687,38.676514c-51.001648,-12.401611 -104.384735,-42.134888 -161.119568,-88.16333c87.587524,231.778809 244.544312,292.324951 442.908569,250.660522c-87.336426,-19.764282 -166.38147,-48.354492 -227.43689,-96.095825c164.238098,6.330566 277.432129,-112.681763 323.657776,-202.938171z" id="path5097"/>
    <path fill="#000000" fill-rule="evenodd" stroke-width="1px" d="m895.410583,1245.197021c-76.495178,121.091064 -246.321716,214.301147 -395.385284,151.307373c96.876556,166.168823 280.739655,184.864014 357.157623,66.070679c-57.137146,42.911255 -128.931885,29.597656 -160.491211,-2.084106c128.808777,-50.800781 165.222107,-132.558716 198.718872,-215.293945z" id="path5099"/>
    <path fill="#000000" fill-rule="evenodd" stroke-width="1px" d="m949.317993,1452.905762c-33.651245,102.706543 -205.55426,237.726563 -338.288452,245.765137c164.531433,106.539673 256.12616,50.304077 326.850647,-52.508179c-41.393555,16.944702 -67.880066,25.274536 -94.751831,-2.277954c74.239868,-51.946533 104.809631,-130.924194 106.189636,-190.979004z" id="path5101"/>
    <path fill="#000000" fill-rule="evenodd" stroke-width="1px" d="m1005.895142,1660.159302c-44.955627,97.989014 -136.620483,193.728271 -241.191772,199.838745c100.736389,49.383789 209.694336,43.808594 282.292847,-29.343384c-48.647156,13.699097 -85.184265,27.809204 -116.570007,11.24292c56.461365,-33.648315 84.397156,-128.968994 75.468933,-181.738281z" id="path5103"/>
    <path fill="#000000" fill-rule="evenodd" stroke-width="1px" d="m1486.608521,2981.266113c-219.360229,-415.996826 -133.504272,-831.357178 -51.960083,-1252.361694c-71.619507,-163.22876 -146.560547,-323.432617 -258.014038,-450.384277c-19.870605,149.630005 45.438843,333.164429 159.829468,517.837524c-78.947754,185.014038 -168.337769,358.089844 -220.775024,541.981689c-20.695068,72.576904 17.689941,51.018555 61.268921,14.553223c-25.324585,71.708984 -56.984375,134.51709 -129.648804,139.716064c-34.752747,-80.745605 34.241333,-209.598389 81.670776,-309.300781c53.001709,-136.103882 121.215088,-261.105591 184.383911,-389.789307c-162.219604,-210.164917 -240.171265,-420.217651 -233.981689,-630.158081l-74.981262,-59.363403c16.635803,199.169678 48.342102,400.21875 206.454041,617.02832c-45.87915,141.803711 -137.307251,245.796509 -255.86792,281.735596c86.36438,-73.023682 162.45874,-161.426514 197.307983,-261.829712c-176.579895,-238.640381 -199.506104,-476.076782 -224.229492,-713.527344c-110.61145,-136.309387 -360.143433,-194.23114 -511.480408,-167.937561c78.444611,88.092163 195.259705,151.801025 353.08606,175.306458c-275.949463,-6.441528 -532.638565,-47.141785 -672.395187,-295.83728c111.744263,20.402832 240.666702,54.616821 353.061295,33.560486c197.573761,18.664978 390.76767,83.288208 468.310394,154.688416c43.472107,40.028381 142.302734,120.028931 192.210571,129.171875c8.372803,-26.88269 -28.938721,-88.561157 -41.527588,-104.071777c-128.237,-158.002502 -263.41095,-245.829468 -433.350647,-360.787231c-93.83728,-69.830994 -308.436035,-35.31311 -408.327362,-21.908081c-15.085953,2.024292 -34.496536,4.779419 -49.509491,8.592896c12.208679,13.653259 29.883148,24.645813 50.829666,34.133606c25.297562,11.458557 72.316879,29.037415 72.316879,29.037415c9.582581,-11.736206 15.731628,-16.601318 35.779114,-15.110779c16.839844,1.25177 24.929688,15.19873 33.012848,31.053833c113.24231,42.299988 218.804901,67.638855 345.568512,92.113281c-167.903748,-2.983093 -452.981232,-18.582764 -613.379227,-141.397827c-81.81904,-62.647766 -83.415651,-165.875366 -102.270737,-250.972076c56.259945,96.734283 137.464874,146.603302 263.577698,125.08075c62.421661,-10.652893 132.400574,-5.738098 199.992523,7.38858c-107.282135,-100.101318 -137.877533,-194.531158 -155.533203,-297.44397c60.59259,107.759552 74.193878,215.146454 281.251251,298.070618c130.521912,52.272766 243.426453,140.266785 355.971924,222.978516c26.284607,-15.843872 49.386047,-59.579041 31.565247,-102.555664c-70.56543,-91.867615 -147.090759,-184.457428 -240.856445,-259.308899c-44.458496,-9.076172 -88.921509,-14.689453 -133.355957,-41.642426c20.610352,105.864655 134.284912,181.27771 218.628601,266.287872c-302.678894,-169.950012 -373.894531,-368.117157 -366.27063,-575.894958c60.522461,140.924194 107.7854,284.459473 312.573242,308.758514c162.8255,98.497559 249.602112,282.067352 386.111267,412.293671c-46.976929,-0.220886 -142.971191,12.467896 -86.189819,83.266785c158.468018,197.590576 269.400757,381.768066 320.831299,568.25415c-52.360107,-79.67688 -101.286377,-143.677246 -172.597168,-186.289673c83.801636,132.096191 226.159058,313.458496 294.396606,464.594971l4.081055,164.272217c-39.752686,268.062988 -131.115356,523.270752 -13.762329,859.889648l-13.806641,306.22583z" id="path5109"/>
    <path fill="#000000" fill-rule="evenodd" stroke-width="1px" d="m1342.542847,1954.950317c-31.410034,169.403687 -109.441772,314.021362 -149.491455,478.594849c-27.294678,112.160645 -33.244995,307.540283 6.419189,313.373291c59.4021,8.768311 73.661865,-177.192383 98.150635,-283.128662c-17.34729,39.339111 -36.731812,102.214844 -62.345703,95.020996c-41.220337,-11.576416 10.039551,-216.00293 36.322754,-316.766602c20.158936,-77.283936 58.166382,-183.737793 70.94458,-287.093872z" id="path5111"/>
    <path fill="#000000" fill-rule="evenodd" stroke-width="1px" d="m1236.563477,882.837158c50.431641,-18.487122 84.035767,-41.27533 78.590698,-140.978333c-10.105713,-91.249695 -52.532837,-256.340576 -169.231812,-182.926697c-7.812866,-29.591064 5.34021,-73.682434 29.98584,-99.903442c65.286987,-69.461639 148.963623,-22.705048 215.422729,23.514801c53.851563,-26.639282 108.729858,-43.772797 174.533936,40.234222c71.878296,131.330139 162.855713,243.598389 317.041748,292.78241c-113.045288,-19.652344 -233.940796,-46.359497 -309.570801,-164.534607c-53.518799,-83.624939 -88.134888,-113.91333 -125.812988,-114.453125c8.715576,9.240601 15.365112,44.195923 21.797607,72.348816c-28.017944,-18.293884 -50.855835,-41.315247 -56.424683,-72.718872c-47.997925,-3.490784 -78.666748,-12.302673 -118.280151,-45.287842c0,0 83.254883,174.687683 61.209595,271.002502c-27.435669,119.866272 -54.005249,120.469238 -119.261719,120.920166z" id="path5113"/>
    <path fill="#000000" fill-rule="evenodd" stroke-width="1px" d="m1504.740479,659.282593c43.712891,74.152222 117.457397,144.411194 202.736938,172.298828c-101.064209,19.888977 -195.936157,-82.64624 -202.736938,-172.298828z" id="path5115"/>
    <path fill="#000000" fill-rule="evenodd" stroke-width="1px" d="m1417.284058,702.534363c79.180786,121.47821 175.467773,203.727722 309.602051,199.184875c-105.966309,136.871338 -193.171021,293.463867 -227.477661,505.661011c-54.69397,-157.168457 -113.842163,-309.80542 -203.836304,-431.065186c85.289429,-64.68634 118.74939,-157.544434 79.8396,-289.738831c50.71936,103.298767 52.762451,204.543884 2.484497,303.582458c51.135742,57.679443 84.686035,133.244385 103.078003,199.158447c29.10498,-83.068115 85.293213,-159.764648 128.730469,-205.726074c-105.348877,-106.330139 -174.976807,-206.47229 -192.420654,-281.056702z" id="path5117"/>
    <path fill="#000000" fill-rule="evenodd" stroke-width="1px" d="m1490.424194,2989.305176c219.360229,-415.99707 154.926758,-839.39624 73.382568,-1260.400757c71.619385,-163.22876 146.560425,-323.432617 258.014282,-450.384277c19.870483,149.630005 -45.438965,333.164429 -159.82959,517.837524c78.947632,185.014038 168.338013,358.089844 220.774658,541.981689c20.695435,72.576904 -17.689697,51.018555 -61.268311,14.553223c25.324341,71.708984 56.984131,134.51709 129.648315,139.716064c34.75293,-80.745605 -34.240967,-209.598389 -81.670776,-309.300781c-53.001709,-136.103882 -121.215088,-261.105591 -184.383545,-389.789307c162.219482,-210.164917 240.171143,-420.217651 233.981445,-630.158081l74.981201,-59.363403c-16.635864,199.169678 -48.341919,400.21875 -206.454102,617.02832c45.879517,141.803711 137.307617,245.796509 255.868164,281.735596c-86.36438,-73.023682 -162.45874,-161.426514 -197.307861,-261.829712c176.579712,-238.640381 199.505981,-476.076782 224.229004,-713.527344c110.611328,-136.309387 360.143799,-194.23114 511.480713,-167.937561c-78.444824,88.092163 -195.26001,151.801025 -353.085938,175.306458c275.949219,-6.441528 532.638428,-47.141785 672.394775,-295.83728c-111.744141,20.402832 -240.666992,54.616821 -353.061035,33.560486c-197.57373,18.664978 -390.767822,83.288208 -468.310059,154.688416c-43.472534,40.028381 -142.303101,120.028931 -192.210938,129.171875c-8.372925,-26.88269 28.938843,-88.561157 41.527588,-104.071777c128.237061,-158.002502 263.411133,-245.829468 433.350586,-360.787231c93.837158,-69.830994 308.436279,-35.31311 408.327148,-21.908081c15.086426,2.024292 34.496582,4.779419 49.509766,8.592896c-12.208984,13.653259 -29.883301,24.645813 -50.829834,34.133606c-25.297119,11.458557 -72.31665,29.037415 -72.31665,29.037415c-9.582764,-11.736206 -15.731201,-16.601318 -35.779297,-15.110779c-16.839844,1.25177 -24.929443,15.19873 -33.012695,31.053833c-113.242432,42.299988 -218.804932,67.638855 -345.568604,92.113281c167.903564,-2.983093 452.981445,-18.582764 613.379395,-141.397827c81.819092,-62.647766 83.415771,-165.875366 102.270508,-250.972076c-56.259766,96.734283 -137.4646,146.603302 -263.577637,125.08075c-62.421631,-10.652893 -132.400391,-5.738098 -199.992676,7.38858c107.282715,-100.101318 137.87793,-194.531158 155.533691,-297.44397c-60.593018,107.759552 -74.194336,215.146454 -281.251465,298.070618c-130.521973,52.272766 -243.42627,140.266785 -355.971924,222.978516c-26.284546,-15.843872 -49.386108,-59.579041 -31.565186,-102.555664c70.56543,-91.867615 147.09082,-184.457428 240.856201,-259.308899c44.458496,-9.076172 88.921631,-14.689453 133.356445,-41.642426c-20.61084,105.864655 -134.2854,181.27771 -218.628906,266.287872c302.678711,-169.950012 373.894287,-368.117157 366.270264,-575.894958c-60.522217,140.924194 -107.785156,284.459473 -312.572754,308.758514c-162.825684,98.497559 -249.602539,282.067352 -386.111206,412.293671c46.976807,-0.220886 142.970581,12.467896 86.189697,83.266785c-158.46814,197.590576 -269.400879,381.768066 -320.831665,568.25415c52.360596,-79.67688 101.286743,-143.677246 172.597534,-186.289673c-83.80188,132.096191 -217.966064,309.938843 -286.203613,461.075317l17.181763,162.432739c39.753052,268.062744 89.269531,527.790039 -28.083496,864.408936l4.774048,315.104736z" id="path5119"/>
    <path fill="#000000" fill-rule="evenodd" stroke-width="1px" d="m2128.743164,1024.318726c52.881592,50.480347 149.333252,149.103027 278.087646,141.079346c29.144531,-1.816772 43.668701,-21.368286 50.505127,-43.218872c3.285156,15.330078 22.01416,45.339722 49.416748,38.676758c51.001709,-12.401855 104.385254,-42.135132 161.120117,-88.16394c-87.587646,231.778931 -244.544678,292.325073 -442.908691,250.660645c87.336182,-19.76416 166.381592,-48.354248 227.437012,-96.095825c-164.238525,6.330811 -277.432373,-112.682007 -323.657959,-202.93811z" id="path5121"/>
    <path fill="#000000" fill-rule="evenodd" stroke-width="1px" d="m2107.586182,1251.119019c76.495117,121.091309 246.321289,214.300781 395.38501,151.307373c-96.876465,166.168823 -280.739258,184.864014 -357.157471,66.070435c57.137207,42.911499 128.931885,29.597778 160.491455,-2.083984c-128.809082,-50.800537 -165.222168,-132.558716 -198.718994,-215.293823z" id="path5123"/>
    <path fill="#000000" fill-rule="evenodd" stroke-width="1px" d="m2053.678711,1458.828003c33.650879,102.706177 205.554199,237.725952 338.288818,245.764893c-164.531982,106.539429 -256.126465,50.303955 -326.851074,-52.508179c41.393555,16.94458 67.880127,25.274414 94.751953,-2.278198c-74.23999,-51.946289 -104.809814,-130.924072 -106.189697,-190.978516z" id="path5125"/>
    <path fill="#000000" fill-rule="evenodd" stroke-width="1px" d="m1997.101807,1666.081177c44.955566,97.989014 136.620117,193.728027 241.191406,199.838745c-100.736328,49.384033 -209.694214,43.808716 -282.292725,-29.343262c48.647339,13.699097 85.18396,27.809326 116.570068,11.242554c-56.461426,-33.647949 -84.397461,-128.968994 -75.46875,-181.738037z" id="path5127"/>
    <path fill="#000000" fill-rule="evenodd" stroke-width="1px" d="m1660.453979,1960.872192c31.410034,169.403442 109.44165,314.021362 149.491211,478.594604c27.294922,112.161133 33.245361,307.541016 -6.419189,313.374023c-59.401978,8.768066 -73.661743,-177.192627 -98.150269,-283.128906c17.347168,39.338623 36.731689,102.214844 62.345581,95.020752c41.220215,-11.57666 -10.039673,-216.00293 -36.322754,-316.766602c-20.159058,-77.28418 -58.166626,-183.737793 -70.94458,-287.093872z" id="path5129"/>
   </g>
  </g>
 </g>
</svg>